<?xml version="1.0" standalone="no"?>
<!DOCTYPE svg PUBLIC "-//W3C//DTD SVG 20010904//EN"
 "http://www.w3.org/TR/2001/REC-SVG-20010904/DTD/svg10.dtd">
<svg version="1.0" xmlns="http://www.w3.org/2000/svg"
 width="1920.000000pt" height="1080.000000pt" viewBox="0 0 1920.000000 1080.000000"
 preserveAspectRatio="xMidYMid meet">

<g transform="translate(0.000000,1080.000000) scale(0.100000,-0.100000)"
fill="#000000" stroke="none">
<path d="M5590 9539 c-882 -25 -1564 -167 -2049 -426 -175 -93 -389 -252 -463
-344 -17 -22 -73 -74 -122 -116 -195 -165 -314 -313 -410 -508 -99 -200 -164
-431 -198 -705 -19 -155 -19 -4167 0 -4320 32 -249 97 -495 177 -666 236 -505
744 -840 1545 -1019 429 -96 964 -145 1570 -145 1116 0 1906 154 2475 483 113
65 245 169 361 284 60 60 147 139 192 178 46 38 87 75 90 82 4 6 27 33 52 60
215 229 347 571 402 1038 19 161 19 4102 0 4255 -47 377 -133 649 -278 872
-271 420 -729 690 -1464 863 -178 43 -545 94 -815 115 -125 10 -740 32 -790
28 -11 -1 -135 -5 -275 -9z m-264 -2161 c-16 -57 -29 -156 -23 -172 5 -12 13
-16 23 -12 35 14 413 18 554 7 345 -28 499 -92 594 -250 70 -114 66 -19 66
-1623 l0 -1447 28 4 c15 2 67 12 115 21 48 9 91 14 94 11 17 -17 -91 -155
-154 -196 -135 -90 -498 -136 -888 -112 -387 23 -541 81 -637 241 -79 132 -73
-11 -76 1645 -2 1014 1 1502 8 1549 21 135 95 243 222 323 62 40 83 42 74 11z"/>
<path d="M10915 9366 c-117 -29 -190 -101 -218 -217 -5 -21 -17 -28 -68 -43
-107 -29 -169 -90 -206 -201 -15 -44 -18 -127 -21 -735 -2 -427 1 -713 7 -761
20 -149 80 -231 200 -271 l66 -23 1275 -5 c1197 -5 1277 -6 1315 -23 21 -10
48 -25 59 -35 25 -23 56 -90 56 -125 0 -15 6 -30 14 -33 7 -3 62 11 122 30 59
20 114 36 121 36 35 0 -15 -119 -71 -168 -49 -43 -51 -44 -478 -177 -205 -64
-452 -141 -548 -172 -96 -30 -209 -65 -250 -78 -541 -170 -578 -182 -752 -251
-258 -102 -475 -224 -615 -345 -84 -74 -288 -265 -398 -374 -251 -249 -418
-626 -484 -1090 -38 -268 -42 -426 -39 -1540 l3 -1070 23 -57 c30 -74 85 -130
158 -159 l59 -24 2640 -3 c2389 -2 2647 -1 2713 13 115 26 181 86 216 198 16
52 19 55 57 61 60 10 133 50 167 93 17 22 41 68 54 103 l23 65 3 675 c3 729 0
807 -44 895 -40 79 -80 113 -179 149 -21 8 -487 12 -1615 16 l-1585 5 2 166
c3 200 15 245 80 295 45 34 189 88 198 74 3 -5 5 -41 4 -80 -1 -39 0 -73 2
-75 4 -3 542 164 1129 351 567 181 997 417 1266 694 38 39 105 101 148 138
284 236 437 493 516 867 38 181 42 281 38 1040 -4 791 -5 792 -64 1015 -117
440 -375 765 -764 960 -211 106 -460 173 -745 200 -169 16 -3524 12 -3590 -4z"/>
</g>
</svg>
