<?xml version="1.0" standalone="no"?>
<!DOCTYPE svg PUBLIC "-//W3C//DTD SVG 20010904//EN"
 "http://www.w3.org/TR/2001/REC-SVG-20010904/DTD/svg10.dtd">
<svg version="1.0" xmlns="http://www.w3.org/2000/svg"
 width="554.000000pt" height="498.000000pt" viewBox="0 0 554.000000 498.000000"
 preserveAspectRatio="xMidYMid meet">

<g transform="translate(0.000000,498.000000) scale(0.100000,-0.100000)"
fill="#000000" stroke="none">
<path d="M2600 4059 c-384 -36 -767 -186 -1052 -415 -122 -98 -278 -270 -346
-382 -37 -61 -108 -212 -136 -290 -88 -247 -86 -569 6 -830 29 -84 113 -256
143 -296 30 -39 28 -4 -4 59 -40 82 -78 180 -103 270 -29 103 -37 421 -13 537
116 578 615 1025 1310 1173 122 26 365 37 547 26 759 -49 1381 -517 1540
-1160 18 -71 22 -117 22 -271 1 -203 -13 -289 -73 -445 -28 -71 -29 -92 -4
-77 14 9 61 112 92 202 64 183 80 451 40 651 -95 476 -451 878 -974 1098 -303
129 -653 181 -995 150z"/>
<path d="M2715 3613 c-4 -81 -8 -150 -9 -153 0 -3 18 -6 42 -8 40 -3 43 -1 42
20 -5 55 1 118 10 118 6 0 27 -34 47 -75 l38 -76 45 3 45 3 7 150 c3 82 6 151
5 151 -1 1 -18 4 -37 6 l-35 3 -5 -69 c-3 -38 -10 -71 -15 -73 -6 -2 -26 30
-45 69 l-35 73 -46 3 -47 3 -7 -148z"/>
<path d="M2477 3728 c-45 -12 -45 4 3 -168 40 -145 41 -146 76 -141 45 5 67
20 58 39 -4 9 -23 75 -44 146 -20 72 -41 131 -46 132 -5 1 -26 -3 -47 -8z"/>
<path d="M3405 3610 c-85 -18 -169 -129 -163 -213 2 -34 9 -45 37 -64 40 -27
98 -30 141 -8 40 21 107 107 122 156 10 35 9 45 -6 74 -16 30 -37 43 -86 57
-8 3 -29 2 -45 -2z m55 -86 c0 -21 -68 -122 -90 -134 -29 -16 -40 -12 -40 13
0 26 19 57 63 105 33 34 67 43 67 16z"/>
<path d="M1983 3528 c-18 -11 -33 -25 -33 -31 1 -7 20 -31 43 -55 23 -23 69
-76 102 -117 33 -40 63 -74 67 -74 4 -1 36 17 72 40 l66 41 -17 29 c-19 32
-34 36 -53 14 -7 -8 -18 -15 -26 -15 -7 0 -50 42 -95 93 -46 50 -85 93 -88 94
-4 1 -21 -8 -38 -19z"/>
<path d="M3615 3344 c-66 -46 -128 -86 -137 -90 -10 -3 -18 -11 -18 -18 0 -13
31 -46 44 -46 4 0 34 18 67 41 33 22 64 39 70 37 5 -2 -9 -33 -31 -70 -22 -37
-40 -71 -40 -76 0 -16 61 -67 68 -56 4 6 63 48 132 94 69 46 128 86 133 90 4
3 -3 19 -16 34 l-24 28 -63 -46 c-94 -69 -99 -64 -39 37 l41 69 -28 29 c-15
16 -30 29 -33 28 -3 0 -60 -38 -126 -85z"/>
<path d="M1736 3319 c-16 -16 -25 -34 -20 -38 5 -4 62 -43 128 -87 65 -43 126
-85 135 -91 15 -11 25 -5 71 42 l55 55 -27 25 c-33 30 -44 31 -58 5 -6 -11
-17 -20 -26 -20 -16 0 -188 112 -199 130 -11 17 -29 11 -59 -21z"/>
<path d="M3823 3057 c-90 -28 -163 -54 -163 -58 0 -3 16 -41 35 -83 32 -68 39
-76 63 -76 15 0 34 4 42 10 12 8 12 14 -3 45 -22 47 -21 61 5 68 28 8 45 -6
53 -44 7 -33 10 -33 54 -18 36 13 38 20 14 56 -16 24 -16 26 2 40 30 21 48 12
60 -31 14 -47 24 -52 64 -32 l30 16 -28 62 c-16 35 -31 71 -35 81 -3 9 -11 16
-18 16 -7 -1 -86 -24 -175 -52z"/>
<path d="M1561 3052 c-21 -42 -21 -42 -1 -62 26 -26 85 -62 195 -121 99 -52
106 -52 120 2 6 23 3 27 -19 33 -19 5 -26 13 -26 30 0 35 25 52 59 39 27 -10
29 -8 50 34 15 32 18 45 9 47 -58 16 -152 28 -250 33 l-116 6 -21 -41z m162
-38 c28 -5 37 -11 37 -26 0 -10 -7 -21 -16 -25 -19 -7 -84 27 -84 44 0 15 9
15 63 7z"/>
<path d="M2550 2988 c-30 -16 -46 -30 -48 -45 -4 -27 8 -29 48 -8 28 14 70 75
52 75 -4 0 -28 -10 -52 -22z"/>
<path d="M2643 2989 c-44 -22 -57 -49 -24 -49 10 0 30 9 44 20 21 17 26 18 31
5 7 -18 29 -19 56 -2 14 8 23 9 28 2 4 -5 37 -11 74 -12 51 -2 69 2 80 14 12
15 9 16 -29 11 -27 -4 -43 -2 -43 4 0 7 -14 8 -35 5 -25 -4 -35 -2 -35 7 0 11
-8 11 -42 2 -32 -9 -42 -8 -45 2 -6 16 -11 15 -60 -9z"/>
<path d="M2465 2983 c-43 -22 -75 -54 -75 -75 0 -23 28 -23 56 0 21 16 59 80
52 87 -2 2 -16 -4 -33 -12z"/>
<path d="M2329 2943 c-65 -55 -67 -59 -45 -88 13 -18 15 -18 41 -1 25 16 42
46 59 104 10 31 -4 28 -55 -15z"/>
<path d="M2212 2905 c-54 -49 -67 -73 -57 -105 13 -42 79 -7 90 48 3 15 10 43
15 61 5 19 8 36 6 38 -2 2 -26 -17 -54 -42z"/>
<path d="M2700 2915 c0 -20 40 -35 88 -33 20 1 46 -2 56 -7 14 -6 17 -5 12 3
-9 15 9 15 35 2 26 -15 25 4 -3 32 -19 19 -22 19 -32 6 -10 -14 -15 -14 -36
-2 -32 17 -40 17 -40 -1 0 -17 -11 -19 -25 -6 -6 5 -20 12 -32 16 -17 5 -23 2
-23 -10z"/>
<path d="M2930 2920 c8 -5 31 -10 50 -10 26 0 31 3 20 10 -8 5 -31 10 -50 10
-26 0 -31 -3 -20 -10z"/>
<path d="M2620 2900 c0 -17 -3 -18 -26 -10 -40 16 -64 12 -64 -9 0 -16 -6 -17
-50 -13 -47 4 -50 3 -50 -18 0 -20 -4 -22 -30 -16 -17 3 -42 1 -56 -5 -26 -9
-26 -10 -8 -31 l19 -21 -33 6 c-21 4 -47 1 -69 -8 -30 -13 -33 -17 -23 -30 8
-10 30 -15 64 -15 55 0 141 20 116 27 -45 13 -45 13 -30 23 8 6 37 10 64 10
37 0 47 3 43 14 -7 17 16 28 38 20 8 -4 22 -3 32 0 15 6 14 8 -2 20 -16 12
-12 13 35 8 47 -4 53 -3 47 12 -6 16 -2 17 33 11 32 -5 39 -4 35 7 -5 12 -58
38 -78 38 -4 0 -7 -9 -7 -20z"/>
<path d="M3269 2751 c11 -7 11 -9 0 -14 -8 -3 -3 -6 10 -6 20 -1 21 1 11 14
-7 8 -18 15 -24 15 -6 0 -5 -4 3 -9z"/>
<path d="M3308 2753 c6 -2 18 -2 25 0 6 3 1 5 -13 5 -14 0 -19 -2 -12 -5z"/>
<path d="M3208 2743 c7 -3 16 -2 19 1 4 3 -2 6 -13 5 -11 0 -14 -3 -6 -6z"/>
<path d="M2078 2666 c-59 -56 -94 -103 -85 -112 2 -3 15 10 28 28 13 18 26 35
29 38 30 30 93 100 89 100 -3 0 -31 -24 -61 -54z"/>
<path d="M3387 2693 c-9 -11 -14 -30 -11 -48 3 -28 3 -28 -5 -5 -9 28 -15 19
-25 -39 -5 -30 -4 -32 11 -20 38 31 82 85 83 100 0 9 -7 20 -16 23 -21 8 -19
9 -37 -11z"/>
<path d="M3185 2690 c-18 -6 -18 -7 1 -11 26 -7 84 6 64 14 -18 7 -40 6 -65
-3z"/>
<path d="M3095 2650 c-4 -6 7 -10 25 -10 18 0 29 4 25 10 -3 6 -15 10 -25 10
-10 0 -22 -4 -25 -10z"/>
<path d="M2990 2630 c0 -8 24 -20 41 -20 6 0 8 4 5 9 -8 12 -46 21 -46 11z"/>
<path d="M3296 2626 c3 -7 -2 -16 -12 -20 -12 -4 -15 -2 -10 9 3 8 1 15 -4 15
-8 0 -29 -40 -44 -85 -7 -18 -5 -18 17 3 13 12 27 22 33 22 9 0 34 46 34 62 0
4 -4 8 -10 8 -5 0 -7 -6 -4 -14z"/>
<path d="M2770 2600 c0 -5 5 -10 11 -10 5 0 7 5 4 10 -3 6 -8 10 -11 10 -2 0
-4 -4 -4 -10z"/>
<path d="M2938 2603 c7 -3 16 -2 19 1 4 3 -2 6 -13 5 -11 0 -14 -3 -6 -6z"/>
<path d="M3158 2586 c-10 -7 -18 -17 -18 -21 0 -5 -7 -17 -17 -27 -9 -10 -12
-18 -7 -18 16 0 55 31 49 40 -3 4 3 7 13 6 9 0 17 5 17 13 0 20 -17 23 -37 7z"/>
<path d="M3061 2553 c-7 -8 -10 -17 -7 -20 9 -9 29 13 25 25 -2 6 -10 3 -18
-5z"/>
<path d="M2965 2543 c-30 -7 -43 -23 -18 -23 11 0 26 7 33 15 7 8 11 14 9 14
-2 -1 -13 -3 -24 -6z"/>
<path d="M2845 2530 c-3 -5 1 -10 9 -10 9 0 16 5 16 10 0 6 -4 10 -9 10 -6 0
-13 -4 -16 -10z"/>
<path d="M3017 2533 c-12 -12 -7 -22 8 -17 8 4 15 10 15 15 0 11 -14 12 -23 2z"/>
<path d="M2768 2523 c7 -3 16 -2 19 1 4 3 -2 6 -13 5 -11 0 -14 -3 -6 -6z"/>
<path d="M1303 2360 c-34 -14 -32 -66 2 -82 32 -15 32 -28 -1 -28 -19 0 -25
-5 -22 -17 5 -25 50 -28 78 -5 29 24 22 63 -15 80 -30 14 -24 36 7 26 16 -5
19 -2 16 13 -4 21 -32 26 -65 13z"/>
<path d="M1444 2357 c-3 -8 -4 -43 -2 -78 3 -56 5 -64 23 -64 18 0 20 7 20 75
0 63 -3 75 -18 78 -9 2 -20 -3 -23 -11z"/>
<path d="M1554 2356 c-3 -7 -4 -42 -2 -77 2 -49 7 -64 18 -64 9 0 17 13 20 35
l6 35 16 -31 c18 -33 35 -44 56 -37 18 7 17 139 -2 146 -20 8 -26 -1 -26 -37
l-1 -31 -19 25 c-36 45 -41 50 -51 50 -5 0 -12 -6 -15 -14z"/>
<path d="M1780 2363 c-26 -9 -40 -35 -40 -73 0 -44 17 -69 50 -72 16 -2 25 3
28 15 2 10 -3 17 -12 17 -12 0 -16 10 -16 40 0 30 4 40 16 40 9 0 14 7 12 17
-3 18 -16 24 -38 16z"/>
<path d="M1894 2357 c-3 -8 -4 -43 -2 -78 l3 -64 45 0 c35 0 45 4 48 18 3 12
-3 17 -22 17 -32 0 -44 18 -14 22 30 4 34 26 6 30 -32 4 -30 33 2 33 15 0 25
6 25 15 0 21 -83 27 -91 7z"/>
<path d="M3628 2359 c-24 -13 -23 -29 2 -29 26 0 25 -4 -6 -45 -37 -49 -30
-70 25 -70 47 0 69 22 32 32 -26 7 -26 9 -1 40 26 33 25 48 -2 67 -26 19 -27
19 -50 5z"/>
<path d="M3780 2350 c-13 -13 -20 -33 -20 -60 0 -27 7 -47 20 -60 25 -25 32
-25 60 -2 17 14 23 29 23 62 0 33 -6 48 -23 62 -28 23 -35 23 -60 -2z m45 -60
c0 -18 -6 -35 -12 -37 -9 -3 -13 8 -13 37 0 29 4 40 13 38 6 -3 12 -20 12 -38z"/>
<path d="M3940 2354 c-11 -13 -10 -16 8 -21 27 -7 27 -4 -3 -49 -36 -53 -30
-69 24 -69 47 0 69 22 32 32 -26 7 -26 9 -1 40 26 33 25 48 -2 67 -28 20 -42
20 -58 0z"/>
<path d="M4123 2358 c-18 -22 -43 -76 -43 -93 0 -9 9 -15 25 -15 14 0 29 -8
35 -20 15 -29 36 -25 50 10 9 21 9 34 2 43 -6 6 -12 28 -14 47 -2 27 -8 36
-24 38 -11 2 -25 -3 -31 -10z m13 -75 c-10 -10 -19 5 -10 18 6 11 8 11 12 0 2
-7 1 -15 -2 -18z"/>
<path d="M1225 2140 c8 -14 815 -14 815 0 0 7 -144 10 -411 10 -271 0 -408 -3
-404 -10z"/>
<path d="M3505 2140 c29 -12 792 -12 800 0 4 7 -134 10 -407 9 -240 0 -405 -4
-393 -9z"/>
<path d="M570 1872 c-68 -34 -75 -97 -20 -180 37 -56 36 -90 -3 -112 -24 -13
-30 -13 -55 0 -30 17 -41 62 -21 86 10 12 6 14 -23 14 -119 0 -133 -194 -17
-236 80 -29 181 -5 223 52 10 15 21 45 23 68 4 36 -1 50 -41 111 -50 75 -51
77 -36 106 14 26 66 26 75 0 3 -10 3 -26 -1 -35 -10 -25 29 -20 54 7 23 25 28
66 12 97 -21 39 -112 52 -170 22z"/>
<path d="M2803 1875 c-90 -25 -151 -71 -171 -133 -29 -85 61 -147 132 -91 25
20 36 59 16 59 -16 0 -11 47 7 65 26 26 59 35 134 35 86 0 109 -11 109 -50 0
-33 -27 -53 -63 -48 -17 2 -22 10 -22 33 0 25 -4 30 -25 30 -21 0 -31 -12 -60
-66 -19 -37 -44 -77 -55 -89 -50 -56 -130 -67 -170 -24 -28 30 -54 26 -85 -13
-39 -49 -17 -121 42 -142 66 -23 127 -8 192 50 l38 33 19 -26 c59 -80 209 -40
241 63 10 34 9 45 -6 77 -17 35 -17 37 0 47 42 23 74 64 74 93 0 88 -187 140
-347 97z m183 -219 c18 -14 18 -17 4 -43 -20 -36 -78 -41 -91 -7 -17 48 43 82
87 50z"/>
<path d="M3934 1880 c-152 -30 -249 -146 -179 -215 32 -33 84 -33 121 -2 26
23 26 24 10 50 -23 34 -8 63 42 84 42 18 161 20 192 3 50 -27 39 -96 -19 -120
-50 -20 -64 -8 -56 50 7 49 6 50 -18 50 -22 0 -32 -13 -69 -82 -65 -123 -138
-161 -193 -102 -28 30 -54 26 -85 -13 -37 -47 -23 -111 30 -138 83 -43 197 13
267 133 15 26 32 42 44 42 19 0 21 -5 36 -89 6 -30 17 -50 35 -64 26 -19 29
-20 71 -3 25 9 53 26 62 36 24 26 34 25 45 -5 14 -37 53 -49 93 -28 18 9 39
24 48 34 22 25 34 24 52 -4 8 -13 34 -29 57 -36 53 -16 119 4 178 54 l40 35
20 -35 c29 -48 83 -70 140 -55 24 6 60 21 81 34 37 24 91 86 91 105 0 14 -17
14 -26 0 -22 -36 -142 -61 -185 -39 -33 18 -22 32 20 25 55 -9 106 15 128 60
16 34 16 36 -3 62 -26 34 -68 45 -119 32 -56 -15 -89 -41 -124 -99 -35 -56
-78 -83 -137 -84 -72 -2 -112 65 -65 108 29 26 56 17 56 -19 1 -23 6 -31 23
-33 47 -7 84 54 57 94 -46 71 -189 34 -235 -61 -26 -54 -43 -69 -70 -60 -24 8
-26 38 -4 90 18 43 13 65 -14 65 -24 0 -43 -22 -75 -86 -29 -57 -41 -70 -78
-79 -19 -5 -34 0 -57 20 -18 15 -32 30 -32 35 0 4 19 14 42 22 51 16 88 65 88
115 0 51 -49 97 -118 112 -60 12 -147 13 -208 1z m990 -205 c8 -9 13 -22 9
-30 -8 -22 -52 -30 -69 -13 -17 17 -9 45 14 51 29 8 30 7 46 -8z"/>
<path d="M1900 1852 c-18 -16 -48 -69 -75 -131 -51 -118 -68 -141 -102 -141
-33 0 -39 24 -21 92 14 51 14 60 2 65 -27 10 -43 -6 -79 -76 -39 -78 -71 -99
-103 -67 -15 15 -15 20 1 65 22 62 22 81 -1 81 -24 0 -54 -33 -85 -96 -24 -47
-42 -64 -68 -64 -5 0 -7 17 -3 39 9 55 -18 107 -61 121 -67 22 -150 -20 -201
-102 -30 -48 -66 -67 -90 -48 -11 10 -14 23 -9 44 15 70 11 90 -17 104 -24 11
-34 10 -78 -9 -28 -12 -54 -19 -57 -15 -4 4 7 33 25 65 39 71 41 91 7 91 -32
0 -70 -56 -123 -188 -54 -133 -62 -182 -33 -211 26 -26 36 -26 61 -1 13 13 20
33 20 60 0 23 6 53 14 68 26 51 96 69 96 25 0 -10 -7 -38 -16 -62 -19 -55 -13
-84 21 -99 32 -15 81 3 121 43 l27 27 24 -30 c45 -59 113 -61 194 -7 21 13 56
27 77 31 37 6 39 5 45 -23 7 -37 48 -58 80 -42 12 6 36 25 53 41 l32 30 10
-30 c16 -47 44 -57 96 -34 24 11 47 25 50 31 11 17 23 13 29 -9 12 -47 90 -43
144 9 29 27 37 27 51 -4 14 -31 54 -48 85 -36 13 5 37 23 53 40 35 37 40 38
48 6 9 -36 47 -58 79 -46 44 17 132 130 114 147 -3 4 -22 -1 -42 -10 -28 -14
-39 -15 -51 -6 -21 18 -18 29 37 144 52 109 58 143 24 138 -27 -4 -61 -48 -82
-104 -9 -27 -20 -48 -23 -48 -4 0 -21 7 -38 16 -24 12 -39 13 -69 5 -54 -15
-80 -36 -119 -97 -34 -54 -66 -73 -100 -60 -26 10 -12 74 40 176 25 50 46 95
46 99 0 22 -33 18 -60 -7z m-617 -206 c14 -37 -28 -82 -68 -74 -57 11 -32 88
29 88 20 0 36 -6 39 -14z m865 -9 c9 -44 -69 -77 -98 -42 -10 12 -9 20 4 41
14 21 24 25 54 22 26 -2 38 -8 40 -21z"/>
<path d="M4362 1848 c-31 -31 -3 -78 47 -78 21 0 61 32 61 49 0 34 -81 56
-108 29z"/>
<path d="M3280 1741 c-87 -27 -140 -92 -140 -173 0 -90 75 -135 173 -102 61
20 167 118 149 136 -9 9 -16 7 -30 -5 -45 -40 -140 -60 -183 -37 -34 19 -22
33 21 26 96 -15 173 67 118 127 -25 28 -70 40 -108 28z m34 -64 c22 -16 11
-45 -21 -53 -16 -5 -30 -1 -41 10 -16 16 -15 19 7 37 27 22 32 23 55 6z"/>
</g>
</svg>
